<svg xmlns="http://www.w3.org/2000/svg" viewBox="0 0 68 70" width="68" height="70">
	<style>
		tspan { white-space:pre }
		.shp0 { fill: none;stroke: #ffffff;stroke-width: 2 } 
		.shp1 { fill: none;stroke: #f5f7fb;stroke-width: 2 } 
		.shp2 { fill: #ffffff } 
	</style>
	<g id="logo.svg">
		<path id="Rectangle 1" class="shp0" d="M63.67,67.86l-28.81,-55l-28.81,55z" />
		<path id="Ellipse 1" class="shp1" d="M1,33.21c0,18.34 15,33.21 33.5,33.21c18.5,0 33.5,-14.87 33.5,-33.21c0,-18.34 -15,-33.21 -33.5,-33.21c-18.5,0 -33.5,14.87 -33.5,33.21z" />
		<path id="Ellipse 1 copy 8" class="shp2" d="M31.26,66.43c0,1.97 1.61,3.57 3.6,3.57c1.99,0 3.6,-1.6 3.6,-3.57c0,-1.97 -1.61,-3.57 -3.6,-3.57c-1.99,0 -3.6,1.6 -3.6,3.57z" />
		<path id="Ellipse 1 copy 9" class="shp2" d="M57.91,66.43c0,1.97 1.61,3.57 3.6,3.57c1.99,0 3.6,-1.6 3.6,-3.57c0,-1.97 -1.61,-3.57 -3.6,-3.57c-1.99,0 -3.6,1.6 -3.6,3.57z" />
		<path id="Ellipse 1 copy 11" class="shp2" d="M2.44,66.43c0,1.97 1.61,3.57 3.6,3.57c1.99,0 3.6,-1.6 3.6,-3.57c0,-1.97 -1.61,-3.57 -3.6,-3.57c-1.99,0 -3.6,1.6 -3.6,3.57z" />
	</g>
</svg>